<svg xmlns="http://www.w3.org/2000/svg" xmlns:xlink="http://www.w3.org/1999/xlink" width="212.32" height="161.82" viewBox="0 0 212.32 161.82"><defs><style>.cls-1{fill:none;}.cls-2{fill:#35a169;}.cls-3{fill:#1b774f;}.cls-4{clip-path:url(#clip-path);}.cls-5{fill:#3ca5dd;}</style><clipPath id="clip-path" transform="translate(-22.62 -19.83)"><path class="cls-1" d="M15.06,57.18V185H196.11V57.18Zm219.68,4.47A27.66,27.66,0,0,1,225.52,79a30,30,0,0,1-18,7.43A89.44,89.44,0,0,1,202.77,101a16.73,16.73,0,0,1-3.12,4.84,86.83,86.83,0,0,1-25.85,19.23,17.53,17.53,0,0,1-5.88,1.71c-1,.11-3,.48-5.9.69a73.31,73.31,0,0,1-21.54-2h0c-7.91-2-17.19-5.93-28-12.08.25-15.92,4.12-21.34,7.83-23.22,1.77-.9,3.77-1.12,8.61-3.13a72.22,72.22,0,0,0,9.65-4.89,42.18,42.18,0,0,0-9.81-3.28c-13.4-2.69-24.62,2-29.47,4.44A228.19,228.19,0,0,1,115.59,67.1C124,59.57,132,53.58,136.35,50.3l1.22-.91c9.26-6.89,16.1-11.4,21.79-15a184.73,184.73,0,0,1,18.27-10.24,58.89,58.89,0,0,1,9.4-3.65,18.65,18.65,0,0,1,4.7-.71,9.78,9.78,0,0,1,2.33.26,7.61,7.61,0,0,1,2.61,1.16,7.22,7.22,0,0,1,1.52,1.46l.07-.07a94,94,0,0,1,4.37,9.09,26.51,26.51,0,0,1,6.15-.72,25.37,25.37,0,0,1,8,1.27,24.81,24.81,0,0,1,7.76,4.18,26.76,26.76,0,0,1,5.7,6.24,28.68,28.68,0,0,1,4.72,15.7A27.26,27.26,0,0,1,234.74,61.65Z"/></clipPath></defs><title>CupSpilling</title><g id="Cup"><path class="cls-2" d="M230.22,42.7a26.76,26.76,0,0,0-5.7-6.24,24.81,24.81,0,0,0-7.76-4.18,25.37,25.37,0,0,0-8-1.27,26.51,26.51,0,0,0-6.15.72,94,94,0,0,0-4.37-9.09l-.07.07a7.22,7.22,0,0,0-1.52-1.46,7.61,7.61,0,0,0-2.61-1.16,9.78,9.78,0,0,0-2.33-.26,18.65,18.65,0,0,0-4.7.71,58.89,58.89,0,0,0-9.4,3.65,184.73,184.73,0,0,0-18.27,10.24c-6.81,4.27-14.2,9.32-21.79,15a295.25,295.25,0,0,0-30.84,26,94.32,94.32,0,0,0-9.35,10.48,30.39,30.39,0,0,0-2.85,4.54,14.54,14.54,0,0,0-.94,2.33,9.55,9.55,0,0,0-.43,2.75,7.54,7.54,0,0,0,.3,2.13,6.71,6.71,0,0,0,1.09,2.19,7.11,7.11,0,0,0,1.59,1.56,7.29,7.29,0,0,0,1.27.7c7.49,6.16,24.47,19.46,43.07,23.38a87.73,87.73,0,0,0,27.44,1.33,17.53,17.53,0,0,0,5.88-1.71,86.83,86.83,0,0,0,25.85-19.23,16.73,16.73,0,0,0,3.12-4.84,89.44,89.44,0,0,0,4.71-14.58,30,30,0,0,0,18-7.43,27.66,27.66,0,0,0,9.22-17.32,27.26,27.26,0,0,0,.2-3.25A28.68,28.68,0,0,0,230.22,42.7Zm-46.49.52c-4.61,7.35-11.37,15.54-26.19,26.63-13.44,10.06-24.3,15.6-34.9,19.27-6,2.09-13.19,4.47-14.7,2.23-2.43-3.61,11.7-17,16.7-21.82,4.41-4.18,14.53-13.35,33.62-24.83,11.54-6.93,27-16.23,29.82-13C189.7,33.55,186.44,38.88,183.73,43.22Zm40.49,17.15a17.05,17.05,0,0,1-5.74,10.68,19.3,19.3,0,0,1-9.21,4.48c.07-.55.14-1.09.18-1.65a88.81,88.81,0,0,0-3.27-32.06,17.66,17.66,0,0,1,2.6-.22,15.12,15.12,0,0,1,4.68.74,14.5,14.5,0,0,1,4.48,2.42,16.87,16.87,0,0,1,4.7,6.06,17.83,17.83,0,0,1,1.7,7.58A14.37,14.37,0,0,1,224.22,60.37Z" transform="translate(-22.62 -19.83)"/><path class="cls-3" d="M158.26,44.7c-19.08,11.48-29.21,20.65-33.61,24.84-5,4.76-19.14,18.19-16.7,21.81,1.5,2.24,8.68-.14,14.69-2.22,10.6-3.68,21.45-9.22,34.9-19.28,14.82-11.09,21.58-19.28,26.18-26.63,2.72-4.34,6-9.67,4.36-11.53C185.26,28.47,169.8,37.76,158.26,44.7Z" transform="translate(-22.62 -19.83)"/></g><g id="Liquid"><g class="cls-4"><path class="cls-5" d="M172.26,80.06a7.51,7.51,0,0,1,.09,2.6c-1,7.11-8.34,10-14.3,12-2.52.88-4.39,1.82-7,2.24-13.9,2.29-19.53-9.25-29.42-6.93-11.6,2.72-16.44,21.91-16.51,25.77v.43c.3,4.6,5.58,6.75,2.24,15.51-5.73,15-19.82,18.67-19.09,30.94.12,2.07,1.54,5.72-.26,9.39-1,2.1-3.27,4.63-5.3,4.24-2.56-.49-3.43-5.32-3.5-5.75-1.16-6.83,4.42-10.53,2.45-14.94-.82-1.86-3-4.14-5.09-4-5.8.39-5.25,14.42-19.53,24.28-7,4.87-17.37,7.79-24.87,4.15a16.28,16.28,0,0,1-4.6-3.36s-5.22-5.49-5-16.44c.17-7.24,7-29.95,43.83-57.13C124.34,60.4,169,71.14,170,71.48,170,71.49,170.35,71.43,172.26,80.06Z" transform="translate(-22.62 -19.83)"/></g><ellipse class="cls-5" cx="94.89" cy="158.4" rx="3.65" ry="1.83" transform="translate(-112.04 149.65) rotate(-62.52)"/><path class="cls-5" d="M56.07,105.53c-3.47,2.43-5,3.29-5.47,2.85-.67-.61.8-3.61,2.43-5.67,4.81-6.06,14-7.65,14.62-6.36C68.06,97.18,64.07,100,56.07,105.53Z" transform="translate(-22.62 -19.83)"/></g></svg>