<svg xmlns="http://www.w3.org/2000/svg" xmlns:xlink="http://www.w3.org/1999/xlink" width="219.69" height="165.11" viewBox="0 0 219.69 165.11"><defs><style>.cls-1,.cls-4,.cls-5,.cls-6,.cls-7,.cls-8{fill:none;}.cls-2{fill:#35a169;}.cls-2,.cls-4{stroke:#1b774f;stroke-width:2px;}.cls-2,.cls-5,.cls-6,.cls-7{stroke-linejoin:round;}.cls-3{clip-path:url(#clip-path);}.cls-4{stroke-miterlimit:10;}.cls-5,.cls-8{stroke:#fff;}.cls-5,.cls-6,.cls-7{stroke-linecap:round;}.cls-5{stroke-width:19px;}.cls-6,.cls-7{stroke:#3ca5dd;}.cls-6{stroke-width:14px;}.cls-7{stroke-width:21px;}.cls-8{stroke-width:4px;}.cls-9{fill:#3ca5dd;}</style><clipPath id="clip-path" transform="translate(-17.26 -19.92)"><polygon class="cls-1" points="203.67 136.06 46.33 136.06 18.26 184.03 231.74 184.03 203.67 136.06"/></clipPath></defs><title>ManFalling</title><g id="Man"><polygon class="cls-2" points="186.41 116.14 29.07 116.14 1 164.11 214.48 164.11 186.41 116.14"/><g class="cls-3"><line class="cls-4" x1="8.23" y1="151.75" x2="207.25" y2="151.75"/><line class="cls-4" x1="15.25" y1="139.76" x2="200.23" y2="139.76"/><line class="cls-4" x1="22.27" y1="127.76" x2="193.21" y2="127.76"/><line class="cls-4" x1="24.58" y1="139.76" x2="24.58" y2="151.75"/><line class="cls-4" x1="48.34" y1="151.75" x2="48.34" y2="164.11"/><line class="cls-4" x1="72.1" y1="127.76" x2="72.1" y2="139.76"/><line class="cls-4" x1="50.41" y1="115.95" x2="50.41" y2="127.95"/><line class="cls-4" x1="95.86" y1="140.12" x2="95.86" y2="151.75"/><line class="cls-4" x1="119.62" y1="151.75" x2="119.62" y2="164.11"/><line class="cls-4" x1="136.1" y1="116.14" x2="136.1" y2="127.76"/><line class="cls-4" x1="176.38" y1="116.14" x2="176.38" y2="127.76"/><line class="cls-4" x1="151.11" y1="127.76" x2="151.11" y2="139.76"/><line class="cls-4" x1="186.26" y1="151.93" x2="186.26" y2="163.92"/><line class="cls-4" x1="174.18" y1="139.76" x2="174.18" y2="151.75"/></g><path class="cls-5" d="M129.3,29.42A109.07,109.07,0,0,0,143.52,50a121.46,121.46,0,0,0,24.13,21.08l59.8-10.85" transform="translate(-17.26 -19.92)"/><path class="cls-5" d="M149.46,109.05A65.05,65.05,0,0,0,159.23,96a61.9,61.9,0,0,0,7.51-22.64" transform="translate(-17.26 -19.92)"/><path class="cls-5" d="M84.94,107a36.53,36.53,0,0,1,28-13.85,41.46,41.46,0,0,1,36,19.93c-.74,2.45-1.56,4.93-2.48,7.44a141,141,0,0,1-23.13,40.32" transform="translate(-17.26 -19.92)"/><path class="cls-6" d="M129.3,29.42A109.07,109.07,0,0,0,143.52,50a121.46,121.46,0,0,0,24.13,21.08l59.8-10.85" transform="translate(-17.26 -19.92)"/><path class="cls-7" d="M149.46,109.05A65.05,65.05,0,0,0,159.23,96a61.9,61.9,0,0,0,7.51-22.64" transform="translate(-17.26 -19.92)"/><path class="cls-6" d="M84.94,107a36.53,36.53,0,0,1,28-13.85,41.46,41.46,0,0,1,36,19.93c-.74,2.45-1.56,4.93-2.48,7.44a141,141,0,0,1-23.13,40.32" transform="translate(-17.26 -19.92)"/><circle class="cls-8" cx="156.14" cy="27.69" r="14.74"/><circle class="cls-9" cx="156.14" cy="27.69" r="14.74"/></g></svg>