<svg xmlns="http://www.w3.org/2000/svg" width="229.19" height="93.22" viewBox="0 0 229.19 93.22"><defs><style>.cls-1{fill:#3ca5dd;}.cls-2{fill:#1483c2;}.cls-3,.cls-6{fill:none;}.cls-3{stroke:#fff;stroke-linecap:round;stroke-linejoin:round;stroke-width:4px;}.cls-4{fill:#1b774f;}.cls-5{fill:#35a169;}.cls-6{stroke:#1483c2;stroke-width:2px;}</style></defs><title>TableRug</title><g id="Rug"><path class="cls-1" d="M229.15,144.71l0-.08-13.27-23.3a2.77,2.77,0,0,0-2.21-1H38.54a2.74,2.74,0,0,0-2.2,1l-13.27,23.3-.05.08-.05.08a1.48,1.48,0,0,0-.13,1.61,2.61,2.61,0,0,0,2.38,1.25H227a2.6,2.6,0,0,0,2.37-1.25,1.5,1.5,0,0,0-.12-1.61Z" transform="translate(-11.49 -61.35)"/><path class="cls-1" d="M240,147.06l-17.75-29.25a5,5,0,0,0-4.22-2.38H34.19A5,5,0,0,0,30,117.81L12.22,147.06a5,5,0,0,0,4.23,7.51H235.73A5,5,0,0,0,240,147.06Zm-13,2.59H25.22c-3.55,0-5.73-3.37-3.89-6l13.32-23.4a4.74,4.74,0,0,1,3.89-1.9H213.63a4.73,4.73,0,0,1,3.89,1.9l13.33,23.4C232.68,146.28,230.5,149.65,227,149.65Z" transform="translate(-11.49 -61.35)"/><path class="cls-2" d="M217.52,120.25a4.73,4.73,0,0,0-3.89-1.9H38.54a4.74,4.74,0,0,0-3.89,1.9l-13.32,23.4c-1.84,2.63.34,6,3.89,6H227c3.54,0,5.72-3.37,3.89-6Zm11.81,26.15a2.6,2.6,0,0,1-2.37,1.25H25.22a2.61,2.61,0,0,1-2.38-1.25,1.48,1.48,0,0,1,.13-1.61l.05-.08.05-.08,13.27-23.3a2.74,2.74,0,0,1,2.2-1H213.63a2.77,2.77,0,0,1,2.21,1l13.27,23.3,0,.08.06.08A1.5,1.5,0,0,1,229.33,146.4Z" transform="translate(-11.49 -61.35)"/></g><g id="Table"><polygon class="cls-3" points="177.03 60.61 172.09 60.61 166.81 21.21 182.31 21.21 177.03 60.61"/><polygon class="cls-3" points="55.47 60.61 50.54 60.61 45.26 21.21 60.75 21.21 55.47 60.61"/><polygon class="cls-3" points="39.98 74.21 35.04 74.21 29.76 39.09 45.26 39.09 39.98 74.21"/><polygon class="cls-3" points="193.18 74.21 188.24 74.21 182.96 39.09 198.45 39.09 193.18 74.21"/><path class="cls-3" d="M225.21,71.8,201.88,64a11.8,11.8,0,0,0-3.64-.58H52.56a11.36,11.36,0,0,0-3.75.63L26.48,71.78a3.82,3.82,0,0,0-2.56,4L24.65,84h9.76l6.37,14.49A4.86,4.86,0,0,0,39,102.1c0,3.48,4.5,6.3,10.06,6.3s10.05-2.82,10.05-6.3a4.09,4.09,0,0,0-.29-1.47H192.44a4.09,4.09,0,0,0-.29,1.47c0,3.48,4.5,6.3,10,6.3s10.05-2.82,10.05-6.3a4.67,4.67,0,0,0-1.45-3.25L217.33,84h9.76l.73-8.23A3.82,3.82,0,0,0,225.21,71.8Z" transform="translate(-11.49 -61.35)"/><path class="cls-3" d="M221.15,74.09H30.59a.36.36,0,0,1-.12-.7l21.4-7.52a4.34,4.34,0,0,1,1.43-.24H198.44a4.34,4.34,0,0,1,1.43.24l21.4,7.52A.36.36,0,0,1,221.15,74.09Z" transform="translate(-11.49 -61.35)"/><polygon class="cls-4" points="177.03 60.61 172.09 60.61 166.81 21.21 182.31 21.21 177.03 60.61"/><polygon class="cls-4" points="55.47 60.61 50.54 60.61 45.26 21.21 60.75 21.21 55.47 60.61"/><polygon class="cls-5" points="39.98 74.21 35.04 74.21 29.76 39.09 45.26 39.09 39.98 74.21"/><polygon class="cls-5" points="193.18 74.21 188.24 74.21 182.96 39.09 198.45 39.09 193.18 74.21"/><path class="cls-5" d="M225.21,71.8,201.88,64a11.8,11.8,0,0,0-3.64-.58H52.56a11.36,11.36,0,0,0-3.75.63L26.48,71.78a3.82,3.82,0,0,0-2.56,4L24.65,84h9.76l6.37,14.49A4.86,4.86,0,0,0,39,102.1c0,3.48,4.5,6.3,10.06,6.3s10.05-2.82,10.05-6.3a4.09,4.09,0,0,0-.29-1.47H192.44a4.09,4.09,0,0,0-.29,1.47c0,3.48,4.5,6.3,10,6.3s10.05-2.82,10.05-6.3a4.67,4.67,0,0,0-1.45-3.25L217.33,84h9.76l.73-8.23A3.82,3.82,0,0,0,225.21,71.8Z" transform="translate(-11.49 -61.35)"/><path class="cls-4" d="M221.15,74.09H30.59a.36.36,0,0,1-.12-.7l21.4-7.52a4.34,4.34,0,0,1,1.43-.24H198.44a4.34,4.34,0,0,1,1.43.24l21.4,7.52A.36.36,0,0,1,221.15,74.09Z" transform="translate(-11.49 -61.35)"/></g><g id="Balls"><circle class="cls-6" cx="119.03" cy="4.13" r="3.13"/><circle class="cls-1" cx="119.03" cy="4.13" r="3.13"/><circle class="cls-6" cx="108.2" cy="5.3" r="3.13"/><circle class="cls-1" cx="108.2" cy="5.3" r="3.13"/><circle class="cls-6" cx="124.77" cy="7.13" r="3.13"/><circle class="cls-1" cx="124.77" cy="7.13" r="3.13"/></g></svg>